<svg height="32" viewBox="0 0 32 32" width="32" xmlns="http://www.w3.org/2000/svg"><path d="m18 23h-2v-2a3.0033 3.0033 0 0 0 -3-3h-4a3.0033 3.0033 0 0 0 -3 3v2h-2v-2a5.0059 5.0059 0 0 1 5-5h4a5.0059 5.0059 0 0 1 5 5z"/><path d="m11 6a3 3 0 1 1 -3 3 3 3 0 0 1 3-3m0-2a5 5 0 1 0 5 5 5 5 0 0 0 -5-5z"/><path d="m2 26h28v2h-28z"/><path d="m27.303 8a2.6616 2.6616 0 0 0 -1.9079.8058l-.3951.4054-.3951-.4054a2.6615 2.6615 0 0 0 -3.8157 0 2.7992 2.7992 0 0 0 0 3.8964l4.2108 4.2978 4.2108-4.2978a2.7992 2.7992 0 0 0 0-3.8964 2.6616 2.6616 0 0 0 -1.9078-.8058z"/><path d="m0 0h32v32h-32z" fill="none"/></svg>